# xmcd
#
# Track frame offsets:
#	150
#	24025
#	50044
#	73030
#	96788
#	121379
#	154985
#	186585
#	215186
#	242282
#	266417
#
# Disc length: 3909 seconds
#
# Revision: 0
# Processed by: cddbd v1.5.2PL0 Copyright (c) Steve Scherf et al.
# Submitted via: EasyCDDAExtractor 2010.6.0.0
#
DISCID=9c0f430b
DTITLE=Various Artist - Dance Classics - Pop Edition Vol. 6
DYEAR=2011
DGENRE=Pop
TTITLE0=Tina Turner - Let's Stay Together (12 Inch Version)
TTITLE1=Laidback - White Horse (12 Inch Version)
TTITLE2=Power Station - Some Like It Hot (Album Version)
TTITLE3=Duran Duran - Notorious (Extended Mix)
TTITLE4=Paul Hardcastle - Just For Money (Extended Version)
TTITLE5=Patrick Hernadez - Born To Be Alive (12 Inch Mix)
TTITLE6=Swing Out Sister - Breakout (N.A.D. Mix)
TTITLE7=Mory Kante - Yeke Yeke (Original 12 Inch Remix)
TTITLE8=Dan Hartman - The Name Of The Game (Album Version)
TTITLE9=Level 42 - To Be With You Again (Extended Version)
TTITLE10=Kim Wilde - Never Trust A Stranger (Extended Version)
EXTD=
EXTT0=
EXTT1=
EXTT2=
EXTT3=
EXTT4=
EXTT5=
EXTT6=
EXTT7=
EXTT8=
EXTT9=
EXTT10=
PLAYORDER=
